<svg width="50" height="50" viewBox="0 0 50 50" fill="none" xmlns="http://www.w3.org/2000/svg">
<circle cx="25" cy="25" r="24" transform="rotate(-180 25 25)" stroke="white" stroke-width="2"/>
<path d="M19.998 25.2662L27.7858 33.0538C27.9659 33.234 28.2063 33.3333 28.4627 33.3333C28.7191 33.3333 28.9595 33.234 29.1397 33.0538L29.7132 32.4804C30.0864 32.1068 30.0864 31.4996 29.7132 31.1265L23.1736 24.587L29.7204 18.0402C29.9005 17.8599 30 17.6196 30 17.3634C30 17.1068 29.9005 16.8665 29.7204 16.6861L29.1469 16.1129C28.9667 15.9326 28.7264 15.8333 28.47 15.8333C28.2136 15.8333 27.9731 15.9326 27.793 16.1129L19.998 23.9076C19.8175 24.0884 19.7183 24.3299 19.7189 24.5865C19.7183 24.8442 19.8175 25.0855 19.998 25.2662Z" fill="white"/>
</svg>
