<svg width="50" height="50" viewBox="0 0 50 50" fill="none" xmlns="http://www.w3.org/2000/svg">
<circle cx="25" cy="25" r="24" stroke="white" stroke-width="2"/>
<path d="M30.002 24.7338L22.2142 16.9462C22.0341 16.766 21.7937 16.6667 21.5373 16.6667C21.2809 16.6667 21.0405 16.766 20.8603 16.9462L20.2868 17.5196C19.9136 17.8932 19.9136 18.5004 20.2868 18.8735L26.8264 25.413L20.2796 31.9598C20.0995 32.1401 20 32.3804 20 32.6366C20 32.8932 20.0995 33.1335 20.2796 33.3139L20.8531 33.8871C21.0333 34.0674 21.2736 34.1667 21.53 34.1667C21.7864 34.1667 22.0269 34.0674 22.207 33.8871L30.002 26.0924C30.1825 25.9116 30.2817 25.6701 30.2811 25.4135C30.2817 25.1558 30.1825 24.9145 30.002 24.7338Z" fill="white"/>
</svg>
